{"title":"Comedy Nights With Kapil - Akshay Kumar - Holiday - 31st May [Te","uid":10294228,"size":622821764,"categoryP":"video","categoryS":"other","magnet":"?xt=urn:btih:8221e157df6a83db8cb22cbeee8844c8b5212891&amp;dn=Comedy+Nights+With+Kapil+-+Akshay+Kumar+-+Holiday+-+31st+May+%5BTe&amp;tr=udp%3A%2F%2Ftracker.openbittorrent.com%3A80&amp;tr=udp%3A%2F%2Fopen.demonii.com%3A1337&amp;tr=udp%3A%2F%2Ftracker.coppersurfer.tk%3A6969&amp;tr=udp%3A%2F%2Fexodus.desync.com%3A6969","seeders":0,"leechers":1,"uploader":"Spyder.69","files":2,"time":1401901003,"description":" &lt;a href=&quot;http://ultraimg.com/images/po5xC.jpg&quot; rel=&quot;nofollow&quot; target=&quot;_NEW&quot;&gt;http://ultraimg.com/images/po5xC.jpg&lt;/a&gt; &lt;a href=&quot;\nhttp://ultraimg.com/images/EBFld.jpg&quot; rel=&quot;nofollow&quot; target=&quot;_NEW&quot;&gt;\nhttp://ultraimg.com/images/EBFld.jpg&lt;/a&gt; &lt;a href=&quot;\nhttp://ultraimg.com/images/bAraq.jpg&quot; rel=&quot;nofollow&quot; target=&quot;_NEW&quot;&gt;\nhttp://ultraimg.com/images/bAraq.jpg&lt;/a&gt; &lt;a href=&quot;\nhttp://ultraimg.com/images/Z0KV2.jpg&quot; rel=&quot;nofollow&quot; target=&quot;_NEW&quot;&gt;\nhttp://ultraimg.com/images/Z0KV2.jpg&lt;/a&gt; &lt;a href=&quot;\nhttp://ultraimg.com/images/rhNWC.jpg&quot; rel=&quot;nofollow&quot; target=&quot;_NEW&quot;&gt;\nhttp://ultraimg.com/images/rhNWC.jpg&lt;/a&gt; &lt;a href=&quot;\nhttp://ultraimg.com/images/Km9B7.jpg&quot; rel=&quot;nofollow&quot; target=&quot;_NEW&quot;&gt;\nhttp://ultraimg.com/images/Km9B7.jpg&lt;/a&gt;\n\nGeneral\nComplete name                            : Comedy Nights With Kapil - Akshay Kumar - Holiday - 31st May [Team Telly]\nFormat                                   : MPEG-4\nFormat profile                           : Base Media\nCodec ID                                 : isom\nFile size                                : 594 MiB\nDuration                                 : 1h 11mn\nOverall bit rate                         : 1 166 Kbps\nWriting application                      : Lavf54.63.104\n\nVideo\nID                                       : 1\nFormat                                   : AVC\nFormat/Info                              : Advanced Video Codec\nFormat profile                           : &lt;a class=&quot;__cf_email__&quot; href=&quot;/cdn-cgi/l/email-protection&quot; data-cfemail=&quot;b9f4d8d0d7f9f58a9789&quot;&gt;[email&amp;#160;protected]&lt;/a&gt;&lt;script cf-hash='f9e31' type=&quot;text/javascript&quot;&gt;\n/* &lt;![CDATA[ */!function(){try{var t=&quot;currentScript&quot;in document?document.currentScript:function(){for(var t=document.getElementsByTagName(&quot;script&quot;),e=t.length;e--;)if(t[e].getAttribute(&quot;cf-hash&quot;))return t[e]}();if(t&amp;&amp;t.previousSibling){var e,r,n,i,c=t.previousSibling,a=c.getAttribute(&quot;data-cfemail&quot;);if(a){for(e=&quot;&quot;,r=parseInt(a.substr(0,2),16),n=2;a.length-n;n+=2)i=parseInt(a.substr(n,2),16)^r,e+=String.fromCharCode(i);e=document.createTextNode(e),c.parentNode.replaceChild(e,c)}}}catch(u){}}();/* ]]&gt; */&lt;/script&gt;\nFormat settings, CABAC                   : Yes\nFormat settings, ReFrames                : 3 frames\nCodec ID                                 : avc1\nCodec ID/Info                            : Advanced Video Coding\nDuration                                 : 1h 11mn\nBit rate                                 : 1 034 Kbps\nWidth                                    : 854 pixels\nHeight                                   : 480 pixels\nDisplay aspect ratio                     : 16:9\nFrame rate mode                          : Constant\nFrame rate                               : 25.000 fps\nColor space                              : YUV\nChroma subsampling                       : 4:2:0\nBit depth                                : 8 bits\nScan type                                : Progressive\nBits/(Pixel*Frame)                       : 0.101\nStream size                              : 527 MiB (89%)\n\nAudio\nID                                       : 2\nFormat                                   : AAC\nFormat/Info                              : Advanced Audio Codec\nFormat profile                           : LC\nCodec ID                                 : 40\nDuration                                 : 1h 11mn\nBit rate mode                            : Constant\nBit rate                                 : 126 Kbps\nChannel(s)                               : 2 channels\nChannel positions                        : Front: L R\nSampling rate                            : 44.1 KHz\nCompression mode                         : Lossy\nStream size                              : 64.0 MiB (11%)","torrent":{"xt":"urn:btih:8221e157df6a83db8cb22cbeee8844c8b5212891","amp;dn":"Comedy+Nights+With+Kapil+-+Akshay+Kumar+-+Holiday+-+31st+May+%5BTe","amp;tr":["udp%3A%2F%2Ftracker.openbittorrent.com%3A80","udp%3A%2F%2Fopen.demonii.com%3A1337","udp%3A%2F%2Ftracker.coppersurfer.tk%3A6969","udp%3A%2F%2Fexodus.desync.com%3A6969"],"infoHash":"8221e157df6a83db8cb22cbeee8844c8b5212891","infoHashBuffer":{"type":"Buffer","data":[130,33,225,87,223,106,131,219,140,178,44,190,238,136,68,200,181,33,40,145]},"announce":[],"urlList":[]}}